<svg xmlns="http://www.w3.org/2000/svg" width="199" height="66" viewBox="0 0 199 66" fill="none"><path fill-rule="evenodd" clip-rule="evenodd" d="M186.483 0.476807V29.8983H180.962V0.476807H169.625V29.8983H164.104V0.476807H152.767V41.2352H161.749H164.104H169.625H180.962H186.483H188.124H197.82V0.476807H186.483Z" fill="#F0542A"></path><path fill-rule="evenodd" clip-rule="evenodd" d="M125.547 0.476807H124.255H114.399H108.947H105.166H103.059H94.3457V11.8138H103.059V29.8983H99.4737V41.2352H103.059H114.075H114.399V11.8138H124.255V41.2352H135.592V0.476807H125.547Z" fill="#0A9FCE"></path><path fill-rule="evenodd" clip-rule="evenodd" d="M150.193 0.476807H141.43H135.592V11.8138H141.43V29.8983H152.766V0.476807H150.193Z" fill="#722B8F"></path><path fill-rule="evenodd" clip-rule="evenodd" d="M93.2646 0.476807H83.0086H78.6631V11.8138H83.0086V41.2352H94.3456V0.476807H93.2646Z" fill="#7BC243"></path><path fill-rule="evenodd" clip-rule="evenodd" d="M45.5149 0.476807H36.7511H30.917V11.8138H36.7511V29.8983H48.088V0.476807H45.5149Z" fill="#C12A90"></path><path fill-rule="evenodd" clip-rule="evenodd" d="M68.5645 0.476807H67.2762H48.1835V10.6673V11.8138V17.9645H59.5241V11.8138H67.2762V29.8983H48.0889V41.2352H67.2762H68.5645H78.6131V0.476807H68.5645Z" fill="#F6882C"></path><path fill-rule="evenodd" clip-rule="evenodd" d="M20.8683 0.476807H0.487305V41.2389H30.9169V0.476807H20.8683ZM11.8243 11.8138H19.5763V29.8983H11.8243V11.8138Z" fill="#1E65AD"></path><path d="M8.49778 61.4819C8.51247 61.8305 8.40427 62.1731 8.19206 62.45C8.09343 62.5694 7.96852 62.6644 7.8271 62.7276C7.68568 62.7907 7.53157 62.8203 7.37682 62.814H0.487305V48.7656H2.23425V61.249H6.80542V51.659C6.79113 51.4439 6.85155 51.2305 6.97648 51.0549L7.34043 50.6472L7.27492 50.4616H3.9812V48.7802H8.49778V61.4819Z" fill="#474647"></path><path d="M21.2364 49.8505L19.5331 62.8289H17.808L19.4967 50.3564H13.0439V48.7805H20.4575C20.9925 48.7805 21.2582 49.0353 21.2582 49.5375C21.2578 49.6422 21.2505 49.7468 21.2364 49.8505ZM14.7654 65.3947H13.0439V53.3844H14.7654V65.3947Z" fill="#474647"></path><path d="M32.8175 62.8284H25.5385V61.2634H31.1033V50.345H27.2782V56.8124H25.5312V50.1339C25.5312 49.2338 25.8758 48.7837 26.5649 48.7837H31.6601C32.4293 48.7837 32.8126 49.1828 32.8102 49.9811L32.8175 62.8284Z" fill="#474647"></path><path d="M45.8355 62.8276H40.6311V61.2627H44.1541L44.0449 50.3443H39.7249L38.997 62.8167H37.3155V62.2235L38.058 50.3552H36.624V48.7793H39.7394V49.8711C40.3045 49.4708 40.8941 49.1062 41.5046 48.7793H44.6855C44.8416 48.7746 44.9968 48.8048 45.1397 48.8678C45.2827 48.9307 45.4097 49.0248 45.5116 49.1432C45.7295 49.4064 45.8423 49.7409 45.8282 50.0822L45.8355 62.8276Z" fill="#474647"></path><path d="M52.0412 56.9948H50.3379V48.7805H52.0412V56.9948Z" fill="#474647"></path><path d="M64.6046 62.8289H62.7303L59.2583 55.3025L58.2028 55.6045L58.2465 56.3324C58.2707 56.9366 58.2841 57.7154 58.2865 58.669V62.8216H56.6378V54.7201L58.7742 54.1924L56.3467 48.7805H58.2246L61.4237 55.8738L62.6648 55.5609L62.5993 54.5491V48.7805H64.3353V56.3615L61.9333 56.973L64.6046 62.8289Z" fill="#474647"></path><path d="M85.2623 62.8283H77.6631V61.2633H82.5472V50.3449H77.6631V48.769H84.2796V61.2524H85.2805L85.2623 62.8283Z" fill="#474647"></path><path d="M91.133 56.9948H89.4297V48.7805H91.133V56.9948Z" fill="#474647"></path><path d="M103.656 61.4819C103.673 61.8313 103.563 62.175 103.347 62.45C103.249 62.5694 103.124 62.6644 102.984 62.7275C102.843 62.7907 102.689 62.8203 102.535 62.814H95.6455V48.7656H97.3815V61.249H101.953V51.659C101.937 51.4437 101.997 51.2297 102.124 51.0549L102.488 50.6472L102.422 50.4616H99.1139V48.7802H103.631L103.656 61.4819Z" fill="#474647"></path><path d="M116.391 49.8505L114.687 62.8289H112.962L114.644 50.3564H108.198V48.7805H115.615C116.147 48.7805 116.413 49.0353 116.413 49.5375C116.412 49.6422 116.405 49.7468 116.391 49.8505ZM109.923 65.3947H108.198V53.3844H109.923V65.3947Z" fill="#474647"></path><path d="M127.415 50.0861L126.607 61.0045C126.607 61.5205 126.434 62.0215 126.115 62.4276C125.779 62.7126 125.343 62.8526 124.903 62.817H122.014V61.252H124.947L125.701 50.3336H120.376V45.0928H122.057V48.7796H127.415V50.0861Z" fill="#474647"></path><path d="M133.597 62.8289H131.872V48.7805H133.597V62.8289Z" fill="#474647"></path><path d="M146.354 49.8505L144.65 62.8289H142.929L144.61 50.3564H138.161V48.7805H145.578C146.11 48.7805 146.375 49.0353 146.375 49.5375C146.375 49.6422 146.368 49.7468 146.354 49.8505ZM139.886 65.3947H138.161V53.3844H139.886V65.3947Z" fill="#474647"></path><path d="M157.378 50.0861L156.57 61.0045C156.57 61.5205 156.397 62.0215 156.078 62.4276C155.742 62.7126 155.306 62.8526 154.866 62.817H151.973V61.252H154.906L155.66 50.3336H150.339V45.0928H152.02V48.7796H157.378V50.0861Z" fill="#474647"></path><path d="M179.75 62.8283H178.025V50.3558H173.767V61.4817C173.775 61.8328 173.644 62.1729 173.403 62.428C173.288 62.555 173.149 62.6563 172.992 62.7253C172.836 62.7943 172.667 62.8294 172.496 62.8283H170.156V61.2633H172.031V50.3449H170.975V48.769H178.585C179.369 48.769 179.761 49.1755 179.761 49.9883L179.75 62.8283Z" fill="#474647"></path><path d="M185.955 56.9948H184.252V48.7805H185.955V56.9948Z" fill="#474647"></path><path d="M197.831 62.8283H190.221V61.2633H195.101V50.3449H190.221V48.769H196.815V61.2524H197.831V62.8283Z" fill="#474647"></path></svg>